HIERARCHY
ROOT Hips
{
	OFFSET 0.000000 0.000000 0.000000
	CHANNELS 6 Xposition Yposition Zposition Zrotation Yrotation Xrotation 
	JOINT LHipJoint
	{
		OFFSET 0.000000 0.000000 0.000000
		CHANNELS 3 Zrotation Yrotation Xrotation
		JOINT LeftUpLeg
		{
			OFFSET 1.363060 -1.794630 0.839290
			CHANNELS 3 Zrotation Yrotation Xrotation
			JOINT LeftLeg
			{
				OFFSET 2.448110 -6.726130 0.000000
				CHANNELS 3 Zrotation Yrotation Xrotation
				JOINT LeftFoot
				{
					OFFSET 2.562200 -7.039590 0.000000
					CHANNELS 3 Zrotation Yrotation Xrotation
					JOINT LeftToeBase
					{
						OFFSET 0.157640 -0.433110 2.322550
						CHANNELS 3 Zrotation Yrotation Xrotation
						End Site
						{
							OFFSET 0.000000 0.000000 0.000000
						}
					}
				}
			}
		}
	}
	JOINT RHipJoint
	{
		OFFSET 0.000000 0.000000 0.000000
		CHANNELS 3 Zrotation Yrotation Xrotation
		JOINT RightUpLeg
		{
			OFFSET -1.305520 -1.794630 0.839290
			CHANNELS 3 Zrotation Yrotation Xrotation
			JOINT RightLeg
			{
				OFFSET -2.542530 -6.985550 0.000000
				CHANNELS 3 Zrotation Yrotation Xrotation
				JOINT RightFoot
				{
					OFFSET -2.568260 -7.056230 0.000000
					CHANNELS 3 Zrotation Yrotation Xrotation
					JOINT RightToeBase
					{
						OFFSET -0.164730 -0.452590 2.363150
						CHANNELS 3 Zrotation Yrotation Xrotation
						End Site
						{
							OFFSET 0.000000 0.000000 0.000000
						}
					}
				}
			}
		}
	}
	JOINT LowerBack
	{
		OFFSET 0.000000 0.000000 0.000000
		CHANNELS 3 Zrotation Yrotation Xrotation
		JOINT Spine
		{
			OFFSET 0.028270 2.035590 -0.193380
			CHANNELS 3 Zrotation Yrotation Xrotation
			JOINT Spine1
			{
				OFFSET 0.056720 2.048850 -0.042750
				CHANNELS 3 Zrotation Yrotation Xrotation
				JOINT Neck
				{
					OFFSET 0.000000 0.000000 0.000000
					CHANNELS 3 Zrotation Yrotation Xrotation
					JOINT Neck1
					{
						OFFSET -0.054170 1.746240 0.172020
						CHANNELS 3 Zrotation Yrotation Xrotation
						JOINT Head
						{
							OFFSET 0.104070 1.761360 -0.123970
							CHANNELS 3 Zrotation Yrotation Xrotation
							End Site
							{
								OFFSET 0.000000 0.000000 0.000000
							}
						}
					}
				}
				JOINT LeftShoulder
				{
					OFFSET 0.000000 0.000000 0.000000
					CHANNELS 3 Zrotation Yrotation Xrotation
					JOINT LeftArm
					{
						OFFSET 3.362410 1.200890 -0.311210
						CHANNELS 3 Zrotation Yrotation Xrotation
						JOINT LeftForeArm
						{
							OFFSET 4.983000 -0.000000 -0.000000
							CHANNELS 3 Zrotation Yrotation Xrotation
							JOINT LeftHand
							{
								OFFSET 3.483560 -0.000000 -0.000000
								CHANNELS 3 Zrotation Yrotation Xrotation
								JOINT LeftFingerBase
								{
									OFFSET 0.000000 0.000000 0.000000
									CHANNELS 3 Zrotation Yrotation Xrotation
									JOINT LeftHandIndex1
									{
										OFFSET 0.715260 -0.000000 -0.000000
										CHANNELS 3 Zrotation Yrotation Xrotation
										End Site
										{
											OFFSET 0.000000 0.000000 0.000000
										}
									}
								}
								JOINT LThumb
								{
									OFFSET 0.000000 0.000000 0.000000
									CHANNELS 3 Zrotation Yrotation Xrotation
									End Site
									{
										OFFSET 0.000000 0.000000 0.000000
									}
								}
							}
						}
					}
				}
				JOINT RightShoulder
				{
					OFFSET 0.000000 0.000000 0.000000
					CHANNELS 3 Zrotation Yrotation Xrotation
					JOINT RightArm
					{
						OFFSET -3.136600 1.374050 -0.404650
						CHANNELS 3 Zrotation Yrotation Xrotation
						JOINT RightForeArm
						{
							OFFSET -5.241900 -0.000000 -0.000000
							CHANNELS 3 Zrotation Yrotation Xrotation
							JOINT RightHand
							{
								OFFSET -3.444170 -0.000000 -0.000000
								CHANNELS 3 Zrotation Yrotation Xrotation
								JOINT RightFingerBase
								{
									OFFSET 0.000000 0.000000 0.000000
									CHANNELS 3 Zrotation Yrotation Xrotation
									JOINT RightHandIndex1
									{
										OFFSET -0.622530 -0.000000 -0.000000
										CHANNELS 3 Zrotation Yrotation Xrotation
										End Site
										{
											OFFSET 0.000000 0.000000 0.000000
										}
									}
								}
								JOINT RThumb
								{
									OFFSET 0.000000 0.000000 0.000000
									CHANNELS 3 Zrotation Yrotation Xrotation
									End Site
									{
										OFFSET 0.000000 0.000000 0.000000
									}
								}
							}
						}
					}
				}
			}
		}
	}
}
MOTION
Frames: 6
Frame Time: 0.008333
-19.879704 16.064224 -0.703026 -24.151751 82.112382 8.143852 -9.012884 -1.154987 4.062926 -3.801933 -6.253019 -68.264006 -1.807467 0.927687 20.835326 0.484895 3.230226 11.920316 1.841600 -0.000000 -29.086000 9.929411 -2.827555 -1.790203 8.109288 -0.734922 -6.055681 1.870613 -1.237271 21.993358 0.457941 4.792444 5.016043 0.741300 0.000000 -82.216200 -9.624485 2.079947 -0.499530 -3.678142 2.420217 -3.129628 -8.124704 2.291058 0.965029 7.696321 6.631054 4.605980 -5.312600 -0.470853 2.688700 0.000000 0.000000 0.000000 -4.154871 4.529070 1.399382 -63.021527 10.116655 14.942794 -3.143303 -18.533679 -0.001706 0.266756 2.940968 0.007761 -0.034794 -0.076837 -0.000000 0.000000 0.000000 0.000000 0.000000 0.000000 0.000000 20.848011 6.970797 -1.739918 74.800713 27.183429 21.097796 1.992412 43.177001 0.007637 1.107660 10.461223 0.103166 0.012010 -0.228656 0.000000 0.000000 0.000000 0.000000 0.000000 0.000000 0.000000 
-19.718505 16.070953 -0.716578 -22.399235 82.488330 10.295883 -9.001810 -1.178594 4.010786 -4.285300 -6.656861 -68.835117 -1.778115 1.061087 22.293805 0.492436 3.233900 11.608325 1.824500 0.000000 -28.515900 10.091723 -2.877670 -1.904452 7.638453 -1.465765 -7.376313 1.695992 -1.454967 23.872185 0.424136 4.932335 6.789003 0.935300 -0.000000 -83.400200 -10.207023 1.971189 -0.336282 -3.805786 2.335424 -3.108231 -8.122321 2.202392 0.901312 7.813167 6.876953 4.835100 -5.338706 -0.473398 2.735814 0.000000 0.000000 0.000000 -4.151920 3.747317 1.488336 -62.591232 9.590520 15.124097 -3.220268 -17.002232 -0.002377 -0.084099 3.144548 -0.001443 -0.036170 -0.072551 -0.000000 0.000000 0.000000 0.000000 0.000000 0.000000 0.000000 21.137310 7.035023 -1.727292 75.182291 26.896448 20.906197 1.953336 42.633031 0.006869 1.039780 10.558028 0.097945 0.009364 -0.228857 0.000000 0.000000 0.000000 0.000000 0.000000 0.000000 0.000000 
-19.563371 16.085655 -0.731604 -20.480961 82.880737 12.593331 -8.971214 -1.224727 3.942151 -4.742739 -7.097669 -69.189565 -1.763074 1.150434 23.539149 0.506608 3.267698 10.913587 1.800700 -0.000001 -28.140600 10.267372 -2.910573 -2.043088 7.179877 -2.237950 -8.794885 1.516405 -1.681376 25.901754 0.363544 5.019891 8.659795 1.147101 -0.000000 -83.672701 -10.742031 1.876733 -0.112735 -3.923524 2.261453 -3.067226 -8.103240 2.126276 0.851121 7.875853 7.159007 5.107956 -5.359526 -0.475615 2.791433 0.000000 0.000000 0.000000 -4.180200 2.943239 1.572587 -62.168124 8.815248 15.315028 -3.298724 -15.349065 -0.003035 -0.432007 3.395970 -0.012041 -0.038004 -0.066623 -0.000000 0.000000 0.000000 0.000000 0.000000 0.000000 0.000000 21.345860 7.114827 -1.724916 75.547436 26.649963 20.609556 1.913853 41.964511 0.006009 0.955554 10.652420 0.090920 0.006760 -0.228070 0.000000 0.000000 0.000000 0.000000 0.000000 0.000000 0.000000 
-19.414335 16.107840 -0.748690 -18.582432 83.252192 14.847162 -8.922507 -1.285019 3.856505 -5.163735 -7.528488 -69.328455 -1.764088 1.198127 24.545101 0.524214 3.308728 9.937412 1.763900 -0.000001 -27.933599 10.450673 -2.919665 -2.196627 6.761157 -3.002088 -10.278159 1.335958 -1.907299 28.042665 0.272981 5.001246 10.569375 1.350200 0.000000 -82.945100 -11.203164 1.805239 0.159825 -4.027118 2.205575 -3.007447 -8.069783 2.070232 0.821551 7.878197 7.469047 5.413843 -5.375829 -0.477453 2.852948 0.000000 0.000000 0.000000 -4.242601 2.164101 1.648045 -61.755213 7.766268 15.492368 -3.375641 -13.581606 -0.003641 -0.752397 3.709478 -0.023534 -0.040221 -0.058906 -0.000000 0.000000 0.000000 0.000000 0.000000 0.000000 0.000000 21.469556 7.209356 -1.733886 75.896603 26.460111 20.238454 1.876271 41.167807 0.005112 0.861604 10.735258 0.082792 0.004328 -0.226136 0.000000 0.000000 0.000000 0.000000 0.000000 0.000000 0.000000 
-19.270684 16.136909 -0.768151 -16.850215 83.573834 16.906453 -8.860467 -1.350294 3.755878 -5.547832 -7.911055 -69.259763 -1.782359 1.207990 25.290743 0.542776 3.340678 8.796508 1.712100 0.000000 -27.845700 10.634253 -2.900763 -2.357082 6.396898 -3.725534 -11.797869 1.159312 -2.125239 30.259487 0.153195 4.829107 12.438400 1.509900 -0.000000 -81.153600 -11.580507 1.762388 0.466380 -4.115444 2.173116 -2.933284 -8.026013 2.039255 0.809967 7.821877 7.796991 5.750097 -5.389413 -0.479048 2.920283 0.000000 0.000000 0.000000 -4.342108 1.395437 1.713239 -61.354270 6.503618 15.541379 -3.449169 -11.754356 -0.004168 -1.014986 4.103495 -0.035421 -0.042643 -0.049478 -0.000000 0.000000 0.000000 0.000000 0.000000 0.000000 0.000000 21.518087 7.314256 -1.749079 76.225018 26.332740 19.824660 1.843049 40.247196 0.004251 0.773832 10.789719 0.074861 0.002075 -0.222979 0.000000 0.000000 0.000000 0.000000 0.000000 0.000000 0.000000 
-19.132221 16.172090 -0.790283 -15.485837 83.818125 18.564814 -8.794445 -1.410817 3.642703 -5.891836 -8.206015 -69.004153 -1.816793 1.187336 25.773459 0.559267 3.345302 7.605596 1.644300 -0.000000 -27.820500 10.805400 -2.851594 -2.518306 6.106947 -4.377613 -13.319728 0.989621 -2.327907 32.507415 0.007355 4.449201 14.184255 1.582000 0.000000 -78.425700 -11.866620 1.752278 0.793344 -4.187294 2.168109 -2.846742 -7.975159 2.037282 0.821588 7.710368 8.143294 6.103996 -5.400268 -0.480296 2.990536 0.000000 0.000000 0.000000 -4.477152 0.697350 1.765112 -60.960392 4.997679 15.474952 -3.514805 -9.876678 -0.004576 -1.175749 4.571197 -0.045602 -0.045038 -0.038268 -0.000000 0.000000 0.000000 0.000000 0.000000 0.000000 0.000000 21.494008 7.437883 -1.772274 76.531926 26.263553 19.381503 1.815475 39.221179 0.003490 0.712231 10.802939 0.069229 -0.000101 -0.218562 0.000000 0.000000 0.000000 0.000000 0.000000 0.000000 0.000000 
